<svg width="48" height="40" viewBox="0 0 48 40" fill="none" xmlns="http://www.w3.org/2000/svg">
<g clip-path="url(#clip0_158_224)">
<path d="M30.2354 2.93838C27.9558 5.2579 27.2898 5.99289 27.2898 6.17425C27.2898 6.35561 27.6932 6.82333 28.9502 8.10241C30.8733 10.0592 30.9202 10.0878 31.5581 9.41967L31.924 9.03785L32.7307 9.84921L33.5468 10.6701V11.701L33.5562 12.7319L30.3011 16.0441L27.0553 19.3468L22.468 14.6791L17.8808 10.0115L18.1059 9.5533C18.2748 9.19058 18.3217 8.93285 18.3217 8.4174C18.3217 7.32924 18.2091 7.17651 14.8883 3.8261C13.2747 2.1843 11.8019 0.771584 11.6237 0.676132C11.1265 0.408863 9.83196 0.427952 9.32539 0.704769C9.10963 0.819313 7.06459 2.84293 4.61618 5.33426C0.469826 9.57239 0.282208 9.77284 0.141494 10.2692C-0.0555043 10.9565 -0.0461234 11.4051 0.179018 12.016C0.338493 12.4646 0.713729 12.8751 3.38728 15.5955C5.62932 17.8673 6.52988 18.7168 6.83945 18.86C7.36478 19.0986 8.22782 19.1177 8.80944 18.9077C9.21282 18.755 9.28786 18.7646 10.8263 19.0605C11.7081 19.2227 12.4492 19.385 12.4774 19.4232C12.5149 19.4614 12.9277 20.1773 13.4061 21.0173C13.8751 21.8572 14.316 22.6018 14.3817 22.6686C14.4474 22.7354 15.3292 22.9454 16.3423 23.1363L18.181 23.4895L19.0346 24.9881C19.4943 25.8186 19.8789 26.5249 19.8789 26.5631C19.8789 26.6108 17.8526 28.7108 15.3761 31.2308C10.4042 36.2994 10.4699 36.223 10.4699 37.3875C10.4699 38.8861 11.558 40.0029 13.0308 40.0029C14.1847 40.0029 14.044 40.1175 19.6913 34.3807L24.8039 29.1881L25.2354 29.9708C25.4699 30.3908 25.7701 30.8203 25.892 30.9062C26.0234 31.0112 26.7551 31.1926 27.7119 31.374C28.5937 31.5362 29.3911 31.6985 29.4943 31.7462C29.5975 31.7939 30.0665 32.5194 30.5731 33.4262C31.0609 34.3044 31.53 35.0489 31.605 35.0966C31.6801 35.1348 32.468 35.3066 33.3405 35.4785C34.2223 35.6407 35.029 35.803 35.1416 35.8316C35.2917 35.8603 35.6013 36.328 36.2579 37.4925C36.7645 38.3898 37.2429 39.1534 37.3367 39.2107C37.6369 39.373 41.4456 40.0602 41.6332 39.9839C41.727 39.9457 42.3649 39.373 43.0403 38.7048C44.1191 37.6357 44.2692 37.4448 44.2692 37.1775C44.2692 36.8912 43.6782 36.2707 37.515 29.9899L30.7607 23.1172L33.9784 19.8432L37.196 16.5691L37.8339 16.6837C38.181 16.7409 38.6876 16.7696 38.9502 16.7409C39.4381 16.6932 39.4381 16.6932 40.1885 17.3328C42.0084 18.8886 43.6501 19.7955 46.4268 20.7786C47.4306 21.1413 47.7683 21.1223 47.9465 20.7214C48.0497 20.5018 48.0122 20.3395 47.7495 19.5473C46.7645 16.7028 45.7702 14.8128 44.3536 13.1423L43.7533 12.4264L43.7439 11.5196C43.7157 9.53421 42.7401 7.84468 41.1078 6.96651C40.3386 6.54652 39.5975 6.36516 38.6407 6.36516H37.8433L37.0178 5.52517L36.2016 4.68518L36.5769 4.31291C37.2242 3.67337 37.196 3.6161 35.3386 1.72612C34.2692 0.637951 33.6219 0.0556831 33.453 0.00795746C33.1998 -0.0493126 33.0121 0.112957 30.2354 2.93838ZM34.4474 2.62338L35.4512 3.64473L33.1716 5.96425L30.9014 8.27423L29.8695 7.22424L28.8376 6.17425L31.0891 3.88337C32.3273 2.62338 33.3592 1.59248 33.3874 1.59248C33.4155 1.59248 33.8939 2.05066 34.4474 2.62338ZM10.9952 1.82157C11.164 1.89793 12.5899 3.27246 14.1847 4.90472L17.0646 7.85423V8.38877C17.0646 8.86604 17.0271 8.97104 16.6988 9.39103C16.5018 9.63921 14.5881 11.6151 12.4586 13.7819C8.25597 18.0296 8.37792 17.9341 7.51488 17.7718C7.21469 17.7146 6.78317 17.3137 4.28785 14.7841C1.83944 12.2928 1.39853 11.7965 1.31411 11.4624C1.11711 10.6987 1.08896 10.7369 5.55427 6.19334C7.83383 3.86428 9.83196 1.89793 9.98205 1.82157C10.3479 1.6593 10.62 1.6593 10.9952 1.82157ZM36.3611 6.67061L37.3274 7.64423L38.4718 7.65378C39.5694 7.65378 39.6538 7.67287 40.2542 7.95923C41.1266 8.37922 41.6707 8.91376 42.0928 9.78239C42.4306 10.4887 42.4399 10.546 42.4587 11.6055C42.4681 12.2165 42.4775 12.7605 42.4775 12.8083C42.4868 12.8655 42.787 13.2473 43.1435 13.6673C43.9127 14.5551 44.8602 15.9582 45.3293 16.9128C45.7514 17.7718 46.3518 19.2705 46.2861 19.3277C46.2111 19.4041 44.5882 18.6977 43.6125 18.1727C42.59 17.6191 41.6895 16.9796 40.7514 16.1396C40.3949 15.8246 40.0103 15.5096 39.9071 15.4619C39.7945 15.4046 39.4568 15.3951 39.1097 15.4332C37.3836 15.605 35.8921 14.7841 35.151 13.2569C34.8602 12.6555 34.8414 12.5601 34.8227 11.4719C34.8133 10.8419 34.8039 10.2883 34.8039 10.2406C34.7945 10.1928 34.363 9.70603 33.8377 9.16194L32.8808 8.17877L34.0909 6.93788C34.757 6.25061 35.3292 5.69698 35.3574 5.69698C35.3761 5.69698 35.8358 6.13607 36.3611 6.67061ZM21.5956 15.605L26.1641 20.2536L23.5093 22.955L20.8545 25.6563L20.0102 24.1672C19.5506 23.3463 19.1003 22.5922 19.0159 22.4968C18.922 22.3918 18.6875 22.2868 18.4999 22.2486C18.3029 22.2104 17.4774 22.0482 16.6612 21.8859L15.1697 21.59L14.2597 19.9768C13.6687 18.9459 13.2654 18.3255 13.1153 18.2491C12.9933 18.1918 12.346 18.0391 11.6706 17.915C11.0046 17.8005 10.4323 17.6764 10.4042 17.6573C10.3667 17.6191 16.8864 10.9469 16.9708 10.9469C16.999 10.9469 19.0721 13.0374 21.5956 15.605ZM34.363 14.4501C34.6257 14.8701 35.1228 15.4141 35.6013 15.7769L35.9296 16.0346L24.9258 27.2408C18.8751 33.4071 13.8095 38.5139 13.6687 38.5902C13.3404 38.762 12.7213 38.762 12.3648 38.5807C11.7832 38.2657 11.5111 37.2634 11.8676 36.7193C12.0552 36.4234 33.969 14.0969 34.0628 14.0969C34.1003 14.0969 34.2317 14.2592 34.363 14.4501ZM42.7495 37.1966C42.7307 37.2252 42.3837 37.5784 41.9709 37.9793L41.2204 38.7048L39.6351 38.4089L38.0591 38.1034L37.1397 36.4807C36.6332 35.593 36.1547 34.8198 36.0703 34.7626C35.9953 34.7053 35.1322 34.5144 34.1378 34.333L32.3461 33.9989L31.4361 32.3858C30.939 31.498 30.4418 30.7249 30.3386 30.6581C30.2354 30.5912 29.3536 30.3812 28.3686 30.1903C27.393 30.009 26.5768 29.8181 26.5581 29.7799C26.5487 29.7417 26.3517 29.379 26.1172 28.9876L25.7044 28.2717L27.787 26.1431L29.8695 24.024L36.3142 30.5817C39.8696 34.1994 42.7589 37.168 42.7495 37.1966Z" fill="#BA8756"/>
<path d="M11.2015 5.92608C10.845 6.0979 10.1227 6.78516 8.14329 8.80878C6.71739 10.2788 5.46973 11.6247 5.37592 11.806C5.15078 12.2737 5.16016 13.0851 5.41345 13.5719C5.68549 14.1351 6.93315 15.2996 7.37405 15.4237C7.83372 15.5573 8.19957 15.5573 8.66862 15.4237C8.97819 15.3378 9.49413 14.8605 11.7455 12.5887C13.4623 10.8419 14.5129 9.70604 14.6255 9.45786C14.8506 8.99014 14.8694 8.21697 14.6724 7.7397C14.4848 7.27198 13.3309 6.11699 12.8244 5.8879C12.2896 5.63972 11.7737 5.64927 11.2015 5.92608ZM13.0776 7.71106C13.9125 8.63696 14.0157 8.4556 11.0889 11.4528C9.70051 12.8655 8.46224 14.0778 8.32152 14.1542C7.93691 14.3642 7.66486 14.2401 7.03634 13.5719C6.11701 12.5983 6.01382 12.7987 8.97819 9.77286C10.3572 8.36015 11.6048 7.14789 11.7549 7.08107C12.1583 6.89971 12.4773 7.05243 13.0776 7.71106Z" fill="#161921"/>
</g>
<defs>
<clipPath id="clip0_158_224">
<rect width="48" height="40" fill="white"/>
</clipPath>
</defs>
</svg>
