<svg width="20" height="21" viewBox="0 0 20 21" fill="none" xmlns="http://www.w3.org/2000/svg">
<path d="M10 0.5C10.7292 0.5 11.3802 0.682292 11.9531 1.04688C12.526 1.41146 12.9818 1.89323 13.3203 2.49219C13.9714 2.28385 14.6224 2.25781 15.2734 2.41406C15.9245 2.57031 16.5234 2.90885 17.0703 3.42969C17.5651 3.95052 17.8906 4.53646 18.0469 5.1875C18.2031 5.86458 18.1901 6.52865 18.0078 7.17969C18.6068 7.51823 19.0885 7.97396 19.4531 8.54688C19.8177 9.11979 20 9.77083 20 10.5C20 11.2292 19.8177 11.8802 19.4531 12.4531C19.0885 13.026 18.6068 13.4818 18.0078 13.8203C18.3984 15.1745 18.0859 16.4245 17.0703 17.5703C16.5234 18.0651 15.9245 18.3906 15.2734 18.5469C14.6224 18.7031 13.9714 18.6901 13.3203 18.5078C12.9818 19.1068 12.526 19.5885 11.9531 19.9531C11.3802 20.3177 10.7292 20.5 10 20.5C9.27083 20.5 8.61979 20.3177 8.04688 19.9531C7.47396 19.5885 7.01823 19.1068 6.67969 18.5078C6.02865 18.6901 5.36458 18.7031 4.6875 18.5469C4.03646 18.4167 3.45052 18.0911 2.92969 17.5703C1.91406 16.4245 1.60156 15.1745 1.99219 13.8203C1.39323 13.4818 0.911458 13.026 0.546875 12.4531C0.182292 11.8802 0 11.2292 0 10.5C0 9.77083 0.182292 9.11979 0.546875 8.54688C0.911458 7.97396 1.39323 7.51823 1.99219 7.17969C1.78385 6.52865 1.75781 5.86458 1.91406 5.1875C2.07031 4.53646 2.40885 3.95052 2.92969 3.42969C3.45052 2.90885 4.03646 2.57031 4.6875 2.41406C5.36458 2.28385 6.02865 2.3099 6.67969 2.49219C7.01823 1.89323 7.47396 1.41146 8.04688 1.04688C8.61979 0.682292 9.27083 0.5 10 0.5ZM13.75 9.25C14.1406 8.83333 14.1406 8.40365 13.75 7.96094C13.3333 7.59635 12.9036 7.59635 12.4609 7.96094L8.75 11.6719L7.1875 10.1484C6.77083 9.78385 6.34115 9.78385 5.89844 10.1484C5.53385 10.5911 5.53385 11.0208 5.89844 11.4375L8.08594 13.625C8.52865 14.0156 8.95833 14.0156 9.375 13.625L13.75 9.25Z" fill="#BA8756"/>
</svg>
