<svg width="70" height="70" viewBox="0 0 70 70" fill="none" xmlns="http://www.w3.org/2000/svg">
<path d="M49.5586 0.222684C48.8585 0.46895 48.0622 1.20775 47.6916 1.97391C47.4307 2.4938 47.417 2.82216 47.417 7.92534C47.417 13.2064 47.417 13.3432 47.719 13.8768C47.8838 14.1778 48.2132 14.6156 48.4741 14.8618C49.2566 15.6143 49.8194 15.7648 51.9199 15.8332L53.8144 15.8879L53.7457 16.2573C53.4986 17.4476 52.6887 22.3319 52.7298 22.4277C52.7573 22.4961 55.1872 21.0458 58.125 19.1988L63.4791 15.8606H65.0853C65.9639 15.8606 67.0072 15.7922 67.3916 15.7101C68.3389 15.5049 69.1626 14.8618 69.6156 13.9589L70 13.2064V7.87061C70 2.97265 69.9726 2.48012 69.7392 1.97391C69.4234 1.27615 68.3938 0.359498 67.6937 0.154277C67.3093 0.0311435 64.797 -0.00990082 58.6605 0.00378063C51.3707 0.00378063 50.0803 0.044825 49.5586 0.222684ZM67.4603 2.65798L67.8035 2.98634V7.78852C67.8035 12.6865 67.776 12.9738 67.2681 13.3569C67.1171 13.4663 66.3895 13.521 65.0029 13.5347H62.9437L59.4018 15.7374C57.4524 16.9551 55.8324 17.9265 55.805 17.8991C55.7775 17.8717 55.9285 16.873 56.1344 15.6827L56.5051 13.5347H53.43H50.3548L50.0254 13.1927L49.6822 12.8643V7.91166C49.6822 3.00002 49.6822 2.94529 49.9842 2.63062L50.2725 2.31594H58.7016H67.1308L67.4603 2.65798Z" fill="#9A9DA5"/>
<path d="M51.9059 5.62684L51.9471 6.7624L58.7152 6.80345L65.4695 6.83081V5.66789V4.50496H58.674H51.8647L51.9059 5.62684Z" fill="#9A9DA5"/>
<path d="M51.9059 10.1417L51.9471 11.2773L56.45 11.3183L60.9391 11.3457V10.1828V9.01986H56.4088H51.8647L51.9059 10.1417Z" fill="#9A9DA5"/>
<path d="M63.2729 10.1828V11.3457H64.3712H65.4695V10.1828V9.01986H64.3712H63.2729V10.1828Z" fill="#9A9DA5"/>
<path d="M31.9039 3.49256C30.4899 3.64306 27.8404 4.14927 26.5225 4.51867C21.1547 6.02363 16.4596 8.74624 12.5471 12.6455C8.64825 16.5173 5.9575 21.0322 4.46112 26.2038L4.00809 27.8045L3.00592 26.1354C2.45679 25.2187 1.94885 24.4389 1.8802 24.3978C1.79783 24.3431 0.39755 25.0819 -0.000570351 25.3829C-0.0417552 25.4239 3.06084 30.6776 3.81589 31.8542C3.91199 31.991 4.65332 31.6079 7.20678 30.0893C9.01891 29.0085 10.5016 28.1192 10.529 28.1055C10.5565 28.0781 9.56804 26.3679 9.4033 26.1627C9.4033 26.149 8.74434 26.5321 7.9481 27.011C7.15186 27.5035 6.46545 27.9003 6.41054 27.9003C6.27325 27.9003 6.82238 26.0533 7.46761 24.3978C10.9134 15.5322 18.3816 8.95146 27.6619 6.55721C32.2472 5.3806 37.5325 5.36692 42.1727 6.55721L43.6416 6.92661L43.9711 5.88682C44.2182 5.12066 44.2594 4.81966 44.1358 4.75126C43.8476 4.58708 41.7609 4.09455 40.1135 3.80724C38.8642 3.58833 37.8071 3.50624 35.4733 3.47888C33.8122 3.45152 32.206 3.4652 31.9039 3.49256Z" fill="#9A9DA5"/>
<path d="M32.7277 11.4415C29.9134 11.8793 27.003 13.2885 24.8751 15.2312C22.9806 16.9688 21.347 19.7051 20.6194 22.3866L20.2487 23.7274L20.235 29.3368V34.9462L20.5919 35.6987C21.1136 36.8069 21.7176 37.4225 22.8022 37.9424L23.7769 38.4076L24.1475 39.5842C24.3672 40.2409 24.8065 41.2397 25.136 41.8143C25.7949 42.9909 27.5247 44.8379 28.568 45.4809C29.0348 45.7682 29.227 45.9871 29.227 46.1923C29.227 46.5344 29.5565 46.4523 24.3946 47.3963C22.5413 47.7247 20.6743 48.1351 20.2624 48.2856C18.0659 49.1065 16.391 50.844 15.5536 53.1836C15.3477 53.7719 15.1418 54.2781 15.0869 54.3328C15.0457 54.4012 14.0984 53.5256 12.9864 52.4174C10.2545 49.6674 10.2408 50.0642 13.3296 46.9585L15.7046 44.5916L11.5175 40.4188L7.33039 36.2323L4.29644 39.2832C1.74298 41.8553 1.19385 42.471 0.83691 43.2235C0.164224 44.619 -0.055428 45.6588 0.0132134 47.2458C0.0818548 48.7781 0.370149 49.7632 1.11148 50.9672C1.39977 51.446 4.51609 54.6475 10.131 60.2295C18.162 68.1921 18.7935 68.7804 19.6721 69.2045C22.1432 70.3675 25.1497 70.2443 27.305 68.8899C27.6757 68.6573 29.4055 67.166 31.1352 65.5926L34.2927 62.7195L33.4416 61.8713L32.6041 61.0093H44.7125C51.3707 61.0093 56.8208 60.9683 56.8208 60.8999C56.8208 60.5442 54.0203 52.5269 53.6496 51.8154C53.0593 50.7209 51.6453 49.3117 50.5745 48.7371C49.435 48.1488 48.7486 47.9709 44.8086 47.2595C40.2508 46.4386 40.6215 46.5344 40.6352 46.1923C40.6352 45.9871 40.9509 45.6588 41.6785 45.1389C42.2551 44.7284 42.9827 44.0717 43.3259 43.6886L43.93 42.9772L45.5362 42.9225C46.8266 42.8814 47.2522 42.813 47.6915 42.5804C48.3917 42.211 48.9408 41.6638 49.3252 40.966C49.6135 40.4188 49.6135 40.3504 49.6135 32.3467C49.6135 25.0956 49.586 24.1652 49.3664 23.1391C48.1446 17.4887 44.1222 13.2474 38.5622 11.7425C37.7797 11.5236 37.0109 11.4552 35.3361 11.4141C34.128 11.3867 32.9611 11.4004 32.7277 11.4415ZM36.956 13.74C41.4452 14.5198 45.2204 17.6939 46.6756 21.9215C47.2248 23.5222 47.3483 24.4936 47.3483 27.3804V29.9251L46.7992 29.7199C46.2638 29.501 46.2501 29.4873 46.2501 28.8306V28.1739H44.9459C41.6099 28.1739 38.4661 26.8194 35.9676 24.2883L34.9517 23.2622L33.7436 24.3978C31.0254 26.9836 28.2386 28.1739 24.9026 28.1739H23.5984V28.8306C23.5984 29.4873 23.5847 29.501 23.0355 29.7199L22.4727 29.9388L22.5413 26.7647C22.61 23.2212 22.6923 22.7697 23.6121 20.8133C25.2595 17.2834 28.4857 14.6703 32.1237 13.8905C34.0868 13.48 35.2537 13.439 36.956 13.74ZM35.8852 27.2572C37.6699 28.7211 40.2508 29.8841 42.4748 30.2261C43.0788 30.3219 43.6554 30.4176 43.7515 30.445C43.8751 30.486 43.9162 31.2932 43.9162 33.9474C43.9162 37.6688 43.8202 38.3666 43.1749 39.8305L42.818 40.624L38.878 40.6514L34.9242 40.6924V41.7869V42.8814L37.8758 42.9498L40.8274 43.0182L40.1822 43.4697C39.2074 44.1401 37.9444 44.7011 36.805 44.9473C35.4459 45.2483 33.3455 45.1526 32.1099 44.7421C29.3231 43.7981 27.1952 41.6227 26.248 38.777C25.9047 37.7372 25.891 37.5183 25.8224 34.139C25.7537 30.2671 25.74 30.3629 26.5637 30.3629C27.2227 30.3629 29.4741 29.7609 30.5998 29.2684C31.6569 28.8306 34.0456 27.3256 34.4986 26.8194C34.6497 26.6552 34.8144 26.5321 34.883 26.5321C34.9517 26.5321 35.391 26.8605 35.8852 27.2572ZM23.5984 33.9474V35.8765L23.2415 35.5482C23.0493 35.3703 22.8022 35.0556 22.6923 34.8504C22.4589 34.4126 22.4452 33.3318 22.6511 32.9213C22.8571 32.5383 23.3376 32.0047 23.4886 32.0047C23.5435 32.0047 23.5984 32.8803 23.5984 33.9474ZM47.1012 32.8393C47.5817 33.7285 47.3758 34.8367 46.607 35.5482L46.2501 35.8765V33.9338V31.9773L46.5521 32.1689C46.7168 32.2783 46.9639 32.5793 47.1012 32.8393ZM47.3483 38.9138C47.3483 39.8305 47.3071 39.9946 47.0051 40.282C46.7443 40.5556 46.5383 40.624 46.0029 40.624H45.3303L45.646 39.6937C45.8245 39.1874 45.9755 38.6812 45.9755 38.5718C45.9755 38.3939 46.7717 37.9835 47.2522 37.9014C47.3071 37.9014 47.3483 38.3529 47.3483 38.9138ZM11.9294 45.2073L11.3116 45.8229L8.70321 43.2235L6.10857 40.624L6.71261 40.0083L7.33039 39.3927L9.93876 41.9921L12.5471 44.5916L11.9294 45.2073ZM9.26607 47.9436C8.5522 48.9697 8.46983 50.3105 9.03269 51.3913C9.44454 52.1848 18.1895 60.8041 18.8621 61.0914C19.9192 61.5292 21.5529 61.283 22.2942 60.5989C22.5825 60.339 22.5825 60.339 25.1771 62.9384L27.7855 65.5379L27.0717 66.2083C26.6735 66.5777 25.9871 67.0429 25.5615 67.2618C24.8202 67.6175 24.6417 67.6449 23.1865 67.6449C20.6056 67.6449 21.3332 68.2195 11.5587 58.492C2.40193 49.3801 2.64904 49.6674 2.29211 47.7383C1.99009 46.1239 2.55294 44.318 3.78849 42.9498L4.41999 42.2384L7.01464 44.8379L9.62301 47.4237L9.26607 47.9436ZM34.9929 47.3689C36.1049 47.3689 36.9697 47.2869 37.464 47.15C37.8758 47.0406 38.2327 46.9585 38.2465 46.9722C38.2602 46.9859 37.5189 47.752 36.5991 48.6687L34.9242 50.3378L33.2219 48.6413L31.5196 46.9448L32.3982 47.1637C32.9748 47.3005 33.8534 47.3826 34.9929 47.3689ZM32.412 51.1177L34.8556 53.553L37.3129 51.104L39.7703 48.655L44.081 49.4348C47.5542 50.0642 48.5427 50.2831 49.2154 50.6115C50.1489 51.0629 51 51.8154 51.5354 52.6637C51.8375 53.1288 53.6633 58.2183 53.6633 58.5741C53.6633 58.6288 48.3917 58.6835 41.9531 58.6835H30.2566L28.1287 56.5629C26.9618 55.4 25.9459 54.4423 25.891 54.4423C25.8224 54.4423 24.8889 55.2358 23.818 56.1935C20.7155 59.0119 20.6056 59.0939 20.1389 59.0939C19.7819 59.0939 19.4799 58.8614 18.313 57.7121L16.899 56.3303L17.4344 54.7569C18.0384 52.9647 18.5738 52.048 19.3975 51.3639C20.4683 50.502 21.2509 50.2557 25.4517 49.4622C27.6482 49.0654 29.5565 48.7234 29.7075 48.7097C29.8859 48.696 30.8057 49.5169 32.412 51.1177ZM30.2978 63.2942L29.5702 64.0193L26.9618 61.4198L24.3535 58.8066L25.0948 58.1226L25.8361 57.4248L28.417 59.9969L31.0117 62.5827L30.2978 63.2942Z" fill="#9A9DA5"/>
<path d="M62.6691 21.3605C62.5592 21.5384 61.6669 23.016 60.6785 24.6578L58.8938 27.6266L59.4704 27.9824C59.7861 28.1739 60.1842 28.4202 60.349 28.5296C60.5137 28.6391 60.7059 28.7212 60.7608 28.7212C60.8295 28.7212 61.2962 28.0097 61.8179 27.1341C62.4494 26.0943 62.8063 25.6155 62.875 25.7386C62.9299 25.8344 63.1358 26.5048 63.328 27.2162C65.6618 35.7808 63.987 44.9884 58.8114 52.1848C58.3721 52.7868 58.0014 53.3478 57.9603 53.4299C57.9053 53.5667 59.3605 54.8527 59.5802 54.8527C59.7449 54.8527 61.2688 52.6774 62.2023 51.1177C65.1401 46.1924 66.5953 40.8429 66.6091 35.0146C66.6091 31.8679 66.156 28.6938 65.3323 25.9986C65.1813 25.506 65.0852 25.0956 65.099 25.0682C65.1401 25.0408 66.3345 25.7386 67.8995 26.6826L68.3388 26.9563L68.9154 25.9849C69.2312 25.4513 69.4646 24.9998 69.4371 24.9724C69.3685 24.904 63.4928 21.3879 63.1358 21.1964C62.9162 21.0869 62.8338 21.1143 62.6691 21.3605Z" fill="#9A9DA5"/>
</svg>
