<svg width="46" height="46" viewBox="0 0 46 46" fill="none" xmlns="http://www.w3.org/2000/svg">
<rect width="46" height="46" fill="#BA8756"/>
<path d="M32.25 24C32.25 24.4375 32.1094 24.7969 31.8281 25.0781C31.5469 25.3594 31.1875 25.5 30.75 25.5H24V32.25C24 32.6875 23.8594 33.0469 23.5781 33.3281C23.2969 33.6094 22.9375 33.75 22.5 33.75C22.0625 33.75 21.7031 33.6094 21.4219 33.3281C21.1406 33.0469 21 32.6875 21 32.25V25.5H14.25C13.8125 25.5 13.4531 25.3594 13.1719 25.0781C12.8906 24.7969 12.75 24.4375 12.75 24C12.75 23.5625 12.8906 23.2031 13.1719 22.9219C13.4531 22.6406 13.8125 22.5 14.25 22.5H21V15.75C21 15.3125 21.1406 14.9531 21.4219 14.6719C21.7031 14.3906 22.0625 14.25 22.5 14.25C22.9375 14.25 23.2969 14.3906 23.5781 14.6719C23.8594 14.9531 24 15.3125 24 15.75V22.5H30.75C31.1875 22.5 31.5469 22.6406 31.8281 22.9219C32.1094 23.2031 32.25 23.5625 32.25 24Z" fill="white"/>
</svg>
