<svg width="44" height="40" viewBox="0 0 44 40" fill="none" xmlns="http://www.w3.org/2000/svg">
<g clip-path="url(#clip0_158_241)">
<path d="M8.79943 1.22849L4.31047 2.45194L3.54601 2.98025C3.11933 3.26758 2.74599 3.57344 2.71933 3.65686C2.63933 3.87931 2.6571 4.24078 2.75488 4.43542C2.85266 4.63007 3.07489 4.71348 6.56828 5.77937L8.92388 6.50233L9.66167 6.31695L10.3906 6.13158L10.4972 6.44671C10.5684 6.66916 10.6839 6.80819 10.8795 6.89161C11.0306 6.95649 13.6351 7.77213 16.6662 8.69899C19.6974 9.63512 22.213 10.4322 22.2574 10.4693C22.3019 10.5156 22.1152 11.3776 21.7952 12.5362L21.2441 14.5289V20.1457V25.7532H16.9774H12.7106V26.4947V27.2362H16.2662H19.8218V31.4442V35.6521L16.8707 37.0146C15.244 37.7654 13.8929 38.3956 13.884 38.4142C13.8484 38.442 14.3106 39.5727 14.3995 39.684C14.4884 39.7859 20.8974 36.8107 21.0841 36.579C21.2263 36.4121 21.2441 36.1804 21.2441 34.7809V33.1681H21.9552H22.6663V34.7809C22.6663 36.1804 22.6841 36.4121 22.8263 36.579C23.013 36.8107 29.422 39.7859 29.5109 39.684C29.5998 39.5727 30.062 38.442 30.0265 38.4142C30.0176 38.3956 28.6664 37.7654 27.0486 37.0146L24.0886 35.6521V31.4442V27.2362H27.6442H31.1998V26.4947V25.7532H26.9331H22.6663V20.2291V14.705L23.0308 13.3982C23.2264 12.6752 23.4664 11.804 23.5641 11.4703L23.733 10.8493L29.5376 12.3694C32.7199 13.2035 35.4221 13.8894 35.5199 13.8894C35.6266 13.8894 35.8221 13.7967 35.9466 13.6948L36.1955 13.4909L36.7021 14.0192L37.2177 14.5568L40.1866 15.3353C41.8222 15.7617 43.2445 16.1139 43.36 16.1139C43.6356 16.1139 44 15.7153 44 15.4187C44 15.289 43.8045 14.7792 43.5645 14.2787L43.12 13.3796L39.8489 9.98732L36.5777 6.58574L31.1465 3.56417L25.7064 0.551876L20.3907 0.32016C17.4574 0.190399 14.6662 0.0699081 14.1773 0.0421028L13.2884 -0.00424194L8.79943 1.22849ZM16.1329 1.62703L17.644 1.69191L16.9596 1.80314C16.4085 1.89582 15.7507 2.16462 13.5373 3.19343C11.7506 4.02761 10.4795 4.55592 9.89279 4.72275L8.9861 4.973L7.18163 4.42616C6.18605 4.12029 5.31493 3.8515 5.24382 3.8237C5.1727 3.78662 6.63051 3.36026 8.48832 2.85049C10.3461 2.34999 12.2306 1.84021 12.6662 1.71045C13.2706 1.53435 13.6084 1.48801 14.044 1.51581C14.364 1.54362 15.3062 1.58996 16.1329 1.62703ZM24.533 2.2295C24.5242 2.24803 24.133 3.74028 23.6619 5.54766C22.7997 8.81021 22.7908 8.83802 22.5508 8.86582C22.3552 8.89363 12.1506 5.82572 11.875 5.65888C11.8395 5.64034 12.8795 5.11203 14.1862 4.50031L16.5773 3.38807L20.3107 2.80415C23.7153 2.27584 24.5419 2.16462 24.533 2.2295ZM29.102 5.22326L32.1065 7.72578L33.6532 9.98732C34.5065 11.2293 35.191 12.2674 35.1732 12.2767C35.1643 12.2952 32.7554 11.6742 29.822 10.9142C26.3464 10.0059 24.4353 9.46828 24.3375 9.36633C24.1864 9.21803 24.2219 9.03266 25.0397 5.89986C25.6353 3.64759 25.9375 2.61878 26.0086 2.65585C26.062 2.69292 27.4575 3.84223 29.102 5.22326ZM34.311 7.02137L35.6977 7.78139L38.8 11.0161L41.8933 14.2509L39.9466 13.7411L37.9999 13.2313L37.351 12.564C36.9244 12.1284 36.0621 10.9698 34.871 9.2273C33.8754 7.76286 33.0221 6.56721 32.9954 6.56721C32.9599 6.56721 32.7554 6.3911 32.5332 6.18719L32.1332 5.80718L32.5332 6.03889C32.7554 6.15939 33.5554 6.60428 34.311 7.02137ZM22.6663 29.4607V31.6851H21.9552H21.2441V29.4607V27.2362H21.9552H22.6663V29.4607Z" fill="#BA8756"/>
<path d="M0.603723 22.778C0.274828 22.9078 -0.000732422 23.0561 -0.000732422 23.0932C-0.000732422 23.1303 0.648168 24.9191 1.43929 27.0601L2.87043 30.953L1.7593 35.2814C1.14595 37.6634 0.657057 39.6191 0.674835 39.6377C0.701502 39.684 1.99041 40.0269 2.00819 39.9991C2.02597 39.9899 2.42598 38.4327 2.90598 36.5512L3.786 33.1218L4.05267 33.1496C4.1949 33.1589 5.69714 32.9272 7.40384 32.6306C10.4617 32.093 10.4883 32.0837 10.5328 32.2784C10.5595 32.3896 10.8972 34.1414 11.2884 36.1712C11.6795 38.2103 12.0173 39.8879 12.0439 39.9157C12.0884 39.9621 13.2262 39.7767 13.3417 39.7025C13.3684 39.6747 13.0662 37.923 12.6573 35.8004C12.2484 33.6779 11.9284 31.9076 11.955 31.8706C11.9728 31.8335 12.1595 31.7779 12.3639 31.7501C12.5595 31.7223 12.7462 31.6759 12.7728 31.6574C12.7906 31.6296 12.7639 31.2959 12.7106 30.9066L12.595 30.2022L12.2306 30.2671C12.035 30.2949 11.8128 30.332 11.7417 30.332C11.6439 30.3412 11.555 30.0632 11.4128 29.3217C11.2617 28.5431 11.1728 28.2743 11.0217 28.1446C10.835 27.987 10.5595 27.9777 7.3594 27.9777H3.90156L3.68822 28.2002C3.56377 28.3299 3.45711 28.4041 3.43933 28.367C3.42155 28.3299 2.93265 26.9953 2.34598 25.4103C1.76819 23.8161 1.2704 22.5185 1.24373 22.5185C1.21707 22.5278 0.932617 22.639 0.603723 22.778ZM10.115 30.0354C10.1683 30.3505 10.2039 30.61 10.195 30.6193C10.1861 30.6286 9.02165 30.8325 7.5994 31.0735C6.18604 31.3144 4.93269 31.5369 4.83491 31.5647C4.56824 31.6203 4.32823 31.0086 4.44379 30.5637C4.48823 30.3876 4.56824 30.0724 4.62157 29.85L4.71935 29.4607H7.36828H10.0083L10.115 30.0354Z" fill="#161921"/>
<path d="M41.5645 25.4103C40.9778 27.0045 40.4889 28.3299 40.4712 28.367C40.4534 28.4041 40.3467 28.3299 40.2223 28.2002L40.0089 27.9777H36.5511C33.351 27.9777 33.0755 27.987 32.8888 28.1446C32.7377 28.2743 32.6488 28.5431 32.4977 29.3217C32.3555 30.0632 32.2666 30.3412 32.1688 30.332C32.0977 30.332 31.8755 30.2949 31.6799 30.2671L31.3155 30.2022L31.1999 30.9066C31.1466 31.2959 31.1199 31.6296 31.1377 31.6574C31.1643 31.6759 31.351 31.7223 31.5466 31.7501C31.751 31.7779 31.9377 31.8335 31.9555 31.8706C31.9821 31.9076 31.6621 33.6779 31.2532 35.8004C30.8443 37.923 30.5421 39.6747 30.5688 39.7025C30.6843 39.7767 31.8221 39.9621 31.8666 39.9157C31.8932 39.8879 32.231 38.2103 32.6221 36.1712C33.0133 34.1414 33.351 32.3896 33.3777 32.2784C33.4222 32.0837 33.4488 32.093 36.5067 32.6306C38.2134 32.9272 39.7156 33.1589 39.8578 33.1496L40.1245 33.1218L41.0045 36.5512C41.4845 38.4327 41.8845 39.9899 41.9023 39.9991C41.9201 40.0269 43.209 39.684 43.2357 39.6377C43.2534 39.6191 42.7645 37.6634 42.1512 35.2814L41.0401 30.953L42.4801 27.0416C43.2712 24.8913 43.8935 23.1024 43.849 23.0561C43.8135 23.019 43.5201 22.88 43.2001 22.7502L42.6223 22.5278L41.5645 25.4103ZM39.2889 29.85C39.3423 30.0724 39.4223 30.3876 39.4667 30.5637C39.5823 31.0086 39.3423 31.6203 39.0756 31.5647C38.9778 31.5369 37.7333 31.3144 36.3111 31.0735C34.8977 30.8325 33.7244 30.6286 33.7155 30.6193C33.7066 30.61 33.7422 30.3505 33.7955 30.0354L33.9022 29.4607H36.5422H39.1911L39.2889 29.85Z" fill="#161921"/>
</g>
<defs>
<clipPath id="clip0_158_241">
<rect width="44" height="40" fill="white"/>
</clipPath>
</defs>
</svg>
