<svg width="37" height="37" viewBox="0 0 37 37" fill="none" xmlns="http://www.w3.org/2000/svg">
<path d="M35.9297 27.7109L34.3125 34.8125C33.9844 35.8906 33.2578 36.4531 32.1328 36.5C26.1797 36.4531 20.7891 34.9766 15.9609 32.0703C11.1328 29.2109 7.28906 25.3672 4.42969 20.5391C1.52344 15.7109 0.046875 10.3203 0 4.36719C0.046875 3.24219 0.609375 2.51563 1.6875 2.1875L8.78906 0.570312C9.91406 0.382812 10.7578 0.804687 11.3203 1.83594L14.5547 9.42969C14.9297 10.4609 14.7188 11.3281 13.9219 12.0312L10.1953 15.0547C11.3672 17.4922 12.9141 19.6719 14.8359 21.5938C16.7578 23.5156 18.9375 25.0859 21.375 26.3047L24.4688 22.5078C25.1719 21.7109 26.0391 21.5 27.0703 21.875L34.6641 25.1094C35.6484 25.7188 36.0703 26.5859 35.9297 27.7109Z" fill="#BA8756"/>
</svg>
