<svg width="30" height="30" viewBox="0 0 30 30" fill="none" xmlns="http://www.w3.org/2000/svg">
<path d="M23.8865 0.0616226C23.7516 0.102665 23.5579 0.196478 23.4464 0.260975C23.3408 0.331335 20.7707 2.86429 17.737 5.9015L12.2212 11.413L7.87894 7.07416C4.43449 3.63239 3.50736 2.7353 3.39 2.7353C3.30785 2.7353 3.06727 2.81152 2.85602 2.90534C1.68832 3.40372 0.538209 4.58225 0.0981178 5.73732C0.0277032 5.92495 -0.013372 6.13017 0.0100995 6.20639C0.0277032 6.28261 1.98171 8.28201 4.3582 10.6508L8.6711 14.9603L4.42275 19.2113L0.1744 23.4622L0.0746463 23.8081C-0.0485793 24.2361 -0.0192399 24.6641 0.162665 25.0218C0.368041 25.4264 1.4712 26.5111 1.88782 26.7163C2.32791 26.9391 2.47461 26.9391 4.08828 26.7222C5.08582 26.5873 5.36161 26.5345 5.44376 26.4466C5.50244 26.3821 5.79584 25.8134 6.0951 25.1684C6.47651 24.3593 6.68189 23.9957 6.76404 23.9605C6.82858 23.9371 7.43298 23.8433 8.10778 23.7553C9.12293 23.6205 9.35178 23.5677 9.46913 23.468C9.54541 23.3977 9.84468 22.8289 10.1439 22.2015C10.4373 21.5742 10.6955 21.0406 10.7131 21.0172C10.7366 20.9937 11.3586 20.894 12.0921 20.7885C12.8256 20.6829 13.4652 20.5715 13.5121 20.5364C13.559 20.5012 13.8583 19.9149 14.181 19.2406L14.762 18.0093L16.0764 17.8216C16.7981 17.7161 17.4377 17.6047 17.5023 17.5754C17.6196 17.5285 17.8602 17.0653 18.5585 15.5701L18.8519 14.9545L20.3482 14.2802C21.6567 13.688 21.8504 13.5883 21.9032 13.4476C21.9443 13.3186 21.9032 13.0254 21.733 12.1635L21.5159 11.0436L22.0792 10.4749L22.6425 9.91201L24.0039 10.1055C26.0811 10.3987 25.8464 10.5042 27.994 8.36996C29.9187 6.45851 30.0009 6.34711 30.0009 5.63765C30.0009 4.85196 30.0302 4.893 27.6302 2.48318C25.2714 0.114391 25.1833 0.0440311 24.5027 0.00298882C24.2855 -0.00873756 24.0332 0.0147152 23.8865 0.0616226ZM24.7667 0.94112C24.8723 0.988028 25.864 1.93789 27.02 3.09296C29.2498 5.33862 29.2204 5.29757 29.1207 5.82527C29.0855 6.01876 28.8625 6.27089 27.4894 7.64877C26.2982 8.83903 25.8347 9.26705 25.6586 9.33154C25.4415 9.41949 25.3359 9.40777 24.0567 9.226L22.6836 9.02665L20.9761 7.32042L19.2626 5.60833L21.5511 3.31577C22.8127 2.05515 23.9217 0.988028 24.0156 0.94112C24.2445 0.841444 24.532 0.841444 24.7667 0.94112ZM4.32886 4.78747C4.32886 4.80506 4.16456 4.91059 3.96505 5.022C3.47802 5.29757 2.7504 5.99531 2.39833 6.51715C2.2399 6.75168 2.09907 6.98035 2.08146 7.02726C2.06386 7.07416 1.85262 6.90413 1.49467 6.55233L0.931358 5.99531L1.14847 5.58488C1.44186 5.01613 2.26337 4.18941 2.83255 3.89624L3.2433 3.6793L3.78902 4.21872C4.08241 4.51189 4.32886 4.76987 4.32886 4.78747ZM8.30729 8.73348C10.0853 10.5101 11.5464 11.9994 11.5464 12.0287C11.5464 12.1049 9.36351 14.2861 9.28723 14.2861C9.19921 14.2861 2.74453 7.81881 2.74453 7.72499C2.74453 7.68395 2.83255 7.4846 2.93231 7.28524C3.28438 6.62269 4.55771 5.50279 4.97433 5.49106C5.02127 5.49106 6.52345 6.95103 8.30729 8.73348ZM20.2778 7.85398L21.8738 9.44881L21.4631 9.85924L21.0523 10.2697L19.4387 8.65726L17.825 7.04485L18.2182 6.652C18.4353 6.4292 18.6289 6.2533 18.6465 6.2533C18.6641 6.2533 19.3976 6.97449 20.2778 7.85398ZM20.8176 12.0404C20.9232 12.5681 20.9995 13.0079 20.9878 13.0196C20.9761 13.0372 20.3717 13.3127 19.644 13.6352C18.9223 13.9636 18.2827 14.2743 18.224 14.333C18.1712 14.3857 17.8837 14.9486 17.5903 15.576C17.291 16.2034 17.0328 16.7369 17.0094 16.7662C16.9859 16.7897 16.3874 16.8894 15.6774 16.9832C14.9732 17.0829 14.3395 17.1825 14.2691 17.2119C14.1869 17.247 13.9698 17.6516 13.5708 18.4842C13.2539 19.1585 12.9781 19.7272 12.9605 19.7507C12.9429 19.7741 12.3444 19.8738 11.6344 19.9735C10.9244 20.0732 10.2965 20.167 10.2378 20.1846C10.1146 20.2256 10.1146 20.2197 9.45153 21.6152L8.90582 22.7586L7.57381 22.9521C6.83445 23.0576 6.18312 23.1807 6.11857 23.2218C6.05402 23.2687 5.75476 23.8316 5.44963 24.4824C5.15037 25.1273 4.86871 25.6844 4.8335 25.7078C4.76309 25.7665 2.90297 26.0127 2.58023 26.0127C2.28097 26.0127 2.11667 25.8954 1.50054 25.2622C0.907886 24.6524 0.808132 24.4531 0.890283 24.0954C0.919622 23.984 3.47802 21.3865 9.07012 15.7988L17.2089 7.6605L18.9164 9.36672L20.6299 11.0788L20.8176 12.0404Z" fill="#BA8756"/>
<path d="M22.6482 3.8669C21.2165 5.29755 21.1108 5.42068 21.1108 5.60831C21.1108 5.8018 21.1989 5.90147 22.1847 6.88651C22.7773 7.47285 23.2996 7.95364 23.3465 7.95364C23.3934 7.95364 23.7749 8.00641 24.1915 8.0709C24.614 8.1354 25.0306 8.18817 25.1245 8.18817C25.2712 8.18817 25.4765 8.01227 26.4917 7.00378C27.5949 5.90734 27.6829 5.8018 27.6829 5.60831C27.6829 5.41482 27.5773 5.29755 26.1396 3.86104C24.7137 2.43625 24.5846 2.32484 24.3969 2.32484C24.2032 2.32484 24.08 2.43625 22.6482 3.8669ZM25.5411 4.49428L26.656 5.60831L25.8051 6.45849L24.9543 7.30281L24.2971 7.209L23.6458 7.11518L22.8888 6.35881L22.1377 5.60831L23.2526 4.49428C23.8629 3.87863 24.3793 3.38024 24.3969 3.38024C24.4145 3.38024 24.9308 3.88449 25.5411 4.49428Z" fill="#161921"/>
<path d="M16.5459 9.26121C16.3346 9.48988 16.3757 9.71854 16.6808 9.99998C16.9683 10.2638 17.1502 10.299 17.3615 10.129C17.4612 10.0528 17.4965 9.95894 17.4965 9.80063C17.4965 9.61887 17.4554 9.54265 17.25 9.35502C16.9625 9.08531 16.7395 9.05599 16.5459 9.26121Z" fill="#161921"/>
<path d="M17.9484 10.7446C17.7724 10.9733 17.7958 11.0964 18.0833 11.3954C18.365 11.7003 18.6115 11.7531 18.8227 11.5596C19.0222 11.3778 18.9811 11.0847 18.7112 10.8208C18.4237 10.5335 18.1362 10.5042 17.9484 10.7446Z" fill="#161921"/>
<path d="M12.2626 3.20433C11.9692 3.32746 11.9751 3.39782 12.4035 5.64934C12.779 7.60769 12.8201 7.76013 12.9726 7.91844C13.1017 8.04744 13.1663 8.07675 13.2954 8.04744C13.489 8.00053 13.6592 7.80704 13.6592 7.637C13.6592 7.33211 12.8553 3.3685 12.7731 3.29228C12.6616 3.18088 12.4211 3.13983 12.2626 3.20433Z" fill="#161921"/>
<path d="M10.49 5.72561C10.3785 5.83702 10.3433 5.94842 10.3727 6.13605C10.3903 6.2709 11.4876 8.08853 11.6167 8.19994C11.8807 8.43447 12.3091 8.24684 12.3091 7.90677C12.3091 7.73087 11.2118 5.81943 11.0357 5.67871C10.889 5.57317 10.625 5.59076 10.49 5.72561Z" fill="#161921"/>
<path d="M20.8998 15.7577C20.7707 15.8222 20.6416 16.0392 20.6416 16.1916C20.6416 16.2385 20.7003 16.3382 20.7766 16.4203C20.8939 16.5551 21.0934 16.602 22.9125 16.9538C24.0156 17.1649 25.0132 17.335 25.1188 17.335C25.3711 17.335 25.5119 17.1825 25.5119 16.9128C25.5119 16.5317 25.8171 16.6196 21.1404 15.7225C21.0758 15.7108 20.9643 15.7284 20.8998 15.7577Z" fill="#161921"/>
<path d="M20.5591 17.1649C20.3889 17.2998 20.3479 17.593 20.4828 17.763C20.5708 17.8803 22.5072 19.0353 22.6129 19.0353C22.7772 19.0353 22.9825 18.8946 23.0353 18.748C23.1468 18.4197 23.0471 18.32 21.9439 17.6633C21.3689 17.3232 20.8584 17.0418 20.8056 17.0418C20.7586 17.0418 20.6471 17.0946 20.5591 17.1649Z" fill="#161921"/>
<path d="M18.4237 17.9448C18.3357 18.1383 17.9953 18.3845 17.6961 18.4725C17.5552 18.5135 16.986 18.6132 16.4227 18.6894L15.4017 18.8243L14.944 19.7683L14.4922 20.7064L17.9014 24.1189L21.3048 27.5313L21.6041 27.3789C22.7894 26.7808 24.051 25.5202 24.6495 24.3358L24.8021 24.0368L21.6803 20.9233C19.9611 19.2054 18.541 17.8041 18.5234 17.8041C18.5058 17.8041 18.4589 17.8685 18.4237 17.9448Z" fill="#BA8756"/>
<path d="M12.479 22.1605C12.3969 22.2015 12.2619 22.3892 12.1563 22.612C11.9392 23.0517 11.7983 23.1983 11.37 23.4211C10.9827 23.6146 10.883 23.8257 11.059 24.0719C11.1235 24.154 11.2468 24.2302 11.3348 24.242C11.5636 24.2713 12.0624 24.0074 12.3851 23.6967C12.6961 23.3859 13.013 22.7937 13.013 22.524C13.013 22.2308 12.7313 22.0374 12.479 22.1605Z" fill="#161921"/>
<path d="M14.2047 22.1488C14.1342 22.1722 14.0345 22.266 13.9758 22.3481C13.8819 22.4889 13.8819 22.5123 14.0052 22.8348C14.2575 23.4798 14.8091 24.0368 15.3782 24.2068C15.7714 24.3241 16.0237 24.0895 15.9239 23.7026C15.9063 23.6263 15.7655 23.5149 15.566 23.4094C15.1846 23.21 14.8853 22.8876 14.7738 22.5534C14.6624 22.2074 14.4511 22.055 14.2047 22.1488Z" fill="#161921"/>
<path d="M13.2247 23.3566C13.2012 23.3859 13.0545 23.6674 12.902 23.9899C12.5733 24.67 12.2271 25.1567 11.699 25.6492C11.2413 26.0713 11.0184 26.2297 10.0443 26.8043C8.53624 27.6955 7.87904 28.4167 7.80863 29.2317C7.77929 29.6421 7.91425 29.906 8.20177 29.9646C8.3074 29.9822 10.7015 29.9998 13.5239 29.9998C19.2803 29.9998 18.9928 30.0232 19.1219 29.5952C19.3684 28.7626 18.5175 27.7013 16.8569 26.7749C15.431 25.9775 14.4217 24.9456 13.9758 23.8316C13.8936 23.6322 13.7821 23.427 13.7293 23.3859C13.6296 23.3097 13.2951 23.2921 13.2247 23.3566ZM12.9489 27.5137C13.0193 27.6017 13.0721 27.7307 13.0721 27.801C13.0721 27.8714 13.0193 28.0004 12.9489 28.0883C12.8374 28.229 12.8022 28.2408 12.321 28.2408C11.8868 28.2408 11.7988 28.2232 11.6814 28.1118C11.5054 27.9476 11.5054 27.6779 11.6756 27.4961C11.7871 27.373 11.8516 27.3613 12.3152 27.3613C12.8022 27.3613 12.8374 27.3671 12.9489 27.5137ZM15.296 27.5137C15.3665 27.6017 15.4193 27.7307 15.4193 27.801C15.4193 27.8714 15.3665 28.0004 15.296 28.0883C15.1846 28.229 15.1494 28.2408 14.6682 28.2408C14.234 28.2408 14.1459 28.2232 14.0286 28.1118C13.8525 27.9476 13.8525 27.6779 14.0227 27.4961C14.1342 27.373 14.1988 27.3613 14.6623 27.3613C15.1494 27.3613 15.1846 27.3671 15.296 27.5137Z" fill="#161921"/>
<path d="M25.2776 25.1449C24.6556 26.2355 23.5055 27.3847 22.4141 28.0063C22.2146 28.1177 22.0503 28.2232 22.0503 28.2408C22.0503 28.2584 22.4317 28.6512 22.8953 29.1144C23.8811 30.0995 23.8341 30.0819 24.597 29.7008C25.6062 29.2024 26.4453 28.3639 26.9558 27.3496C27.349 26.5639 27.3607 26.5991 26.3749 25.614C25.9172 25.1567 25.5299 24.7814 25.5123 24.7814C25.4947 24.7814 25.3891 24.9456 25.2776 25.1449Z" fill="#BA8756"/>
</svg>
